<svg width="68" height="68" viewBox="0 0 68 68" fill="none" xmlns="http://www.w3.org/2000/svg">
<circle opacity="0.15" cx="33.7662" cy="33.9319" r="33.2437" fill="#F2994A"/>
<path d="M40.7975 28.6632L35.5475 23.4132C35.3975 23.2632 35.2475 23.1882 35.0225 23.1882H27.5225C26.6975 23.1882 26.0225 23.8632 26.0225 24.6882V42.6882C26.0225 43.5132 26.6975 44.1882 27.5225 44.1882H39.5225C40.3475 44.1882 41.0225 43.5132 41.0225 42.6882V29.1882C41.0225 28.9632 40.9475 28.8132 40.7975 28.6632ZM35.0225 24.9882L39.2225 29.1882H35.0225V24.9882ZM39.5225 42.6882H27.5225V24.6882H33.5225V29.1882C33.5225 30.0132 34.1975 30.6882 35.0225 30.6882H39.5225V42.6882Z" fill="#F2994A"/>
<path d="M29.0225 38.1882H38.0225V39.6882H29.0225V38.1882ZM29.0225 33.6882H38.0225V35.1882H29.0225V33.6882Z" fill="#F2994A"/>
</svg>
