<svg width="32" height="31" viewBox="0 0 32 31" fill="none" xmlns="http://www.w3.org/2000/svg">
<path fill-rule="evenodd" clip-rule="evenodd" d="M4.38281 15.0601C4.38281 8.63767 9.41457 3.88281 15.9058 3.88281C22.3971 3.88281 27.4288 8.63767 27.4288 15.0601C27.4288 21.4826 22.3971 26.2375 15.9058 26.2375C14.7399 26.2375 13.6213 26.0835 12.5703 25.7945C12.366 25.7383 12.1487 25.7542 11.9548 25.8397L9.66766 26.8493C9.06938 27.1134 8.39404 26.688 8.37399 26.0342L8.31124 23.9845C8.30352 23.7319 8.1899 23.4959 8.00168 23.3274C5.75958 21.3224 4.38281 18.4195 4.38281 15.0601ZM12.3712 12.9587L8.9863 18.3289C8.66147 18.8442 9.29496 19.425 9.78024 19.0568L13.4162 16.2973C13.6621 16.1107 14.002 16.1097 14.249 16.2949L16.9412 18.3141C17.749 18.92 18.902 18.7073 19.4405 17.853L22.8254 12.4828C23.1502 11.9674 22.5167 11.3866 22.0314 11.7549L18.3955 14.5143C18.1495 14.701 17.8097 14.702 17.5627 14.5167L14.8705 12.4976C14.0626 11.8917 12.9096 12.1044 12.3712 12.9587Z" fill="black"/>
</svg>
