<svg width="68" height="67" viewBox="0 0 68 67" fill="none" xmlns="http://www.w3.org/2000/svg">
<circle opacity="0.15" cx="33.9947" cy="33.2437" r="33.2437" fill="#EB5757"/>
<path d="M32.251 33.4425L30.3085 31.5L29.251 32.5575L32.251 35.5575L38.251 29.5575L37.1935 28.5L32.251 33.4425Z" fill="#EB5757"/>
<path d="M33.751 43.5L29.119 41.0303C27.7985 40.3277 26.6942 39.2789 25.9247 37.9963C25.1551 36.7137 24.7494 35.2457 24.751 33.75V24C24.7514 23.6023 24.9095 23.221 25.1908 22.9398C25.472 22.6586 25.8533 22.5004 26.251 22.5H41.251C41.6487 22.5004 42.03 22.6586 42.3112 22.9398C42.5924 23.221 42.7506 23.6023 42.751 24V33.75C42.7526 35.2457 42.3468 36.7137 41.5773 37.9963C40.8078 39.2789 39.7035 40.3277 38.383 41.0303L33.751 43.5ZM26.251 24V33.75C26.2497 34.9739 26.5818 36.1749 27.2116 37.2243C27.8413 38.2737 28.7449 39.1318 29.8255 39.7065L33.751 41.7997L37.6765 39.7073C38.7571 39.1325 39.6608 38.2743 40.2906 37.2248C40.9204 36.1752 41.2524 34.974 41.251 33.75V24H26.251Z" fill="#EB5757"/>
</svg>
