<svg width="32" height="31" viewBox="0 0 32 31" fill="none" xmlns="http://www.w3.org/2000/svg">
<path d="M15.8457 4.25415C9.52073 4.25415 4.37329 9.21202 4.37106 15.3051C4.36957 17.2536 4.89889 19.1553 5.9025 20.8302L4.27441 26.5568L10.3578 25.0201C12.05 25.9053 13.9316 26.367 15.8413 26.3657H15.8457C22.1708 26.3657 27.3182 21.4071 27.3204 15.314C27.3219 12.3626 26.1295 9.58447 23.9624 7.49621C21.7961 5.4072 18.9153 4.25489 15.8457 4.25415ZM15.8457 24.499H15.842C14.1307 24.499 12.452 24.0559 10.9875 23.2188L10.6381 23.0196L7.02953 23.931L7.993 20.541L7.76626 20.1938C6.81387 18.7413 6.30687 17.042 6.30767 15.3051C6.3099 10.2402 10.589 6.12088 15.8495 6.12088C18.3964 6.12162 20.791 7.0784 22.5923 8.81429C24.3936 10.5502 25.3846 12.8585 25.3831 15.3133C25.3809 20.3782 21.1025 24.499 15.845 24.499H15.8457ZM21.0772 17.6186C20.7902 17.4811 19.3807 16.8127 19.1175 16.7198C18.8551 16.6284 18.6641 16.5808 18.473 16.8574C18.2827 17.1339 17.7325 17.7561 17.566 17.9398C17.398 18.1241 17.2307 18.1464 16.9438 18.0089C16.6568 17.8706 15.7327 17.5792 14.6384 16.638C13.7857 15.9065 13.2103 15.0025 13.0431 14.7252C12.8758 14.4494 13.0252 14.3 13.1687 14.1625C13.2973 14.0398 13.4557 13.8406 13.5984 13.6792C13.7411 13.5179 13.7887 13.4027 13.8853 13.2183C13.9805 13.0347 13.9329 12.8726 13.8608 12.7351C13.7887 12.5961 13.2163 11.2371 12.9761 10.6847C12.7442 10.1465 12.5078 10.2186 12.3316 10.2097C12.1643 10.2023 11.974 10.2 11.7815 10.2C11.5919 10.2 11.2804 10.2692 11.0172 10.5457C10.7548 10.8223 10.0136 11.4899 10.0136 12.8488C10.0136 14.2085 11.041 15.5214 11.1845 15.7058C11.328 15.8894 13.2066 18.6795 16.0829 19.8764C16.7668 20.1596 17.3006 20.3299 17.7177 20.4577C18.4046 20.6681 19.0298 20.6376 19.5234 20.567C20.0736 20.4875 21.2199 19.8994 21.4578 19.2549C21.6972 18.6103 21.6972 18.0572 21.6258 17.942C21.556 17.8268 21.3642 17.7576 21.0772 17.6186Z" fill="black"/>
</svg>
