<svg width="31" height="31" viewBox="0 0 31 31" fill="none" xmlns="http://www.w3.org/2000/svg">
<path fill-rule="evenodd" clip-rule="evenodd" d="M15.4996 3.88257C12.3699 3.88257 11.9781 3.89563 10.749 3.95171C9.5222 4.00779 8.6841 4.20291 7.95123 4.48791C7.18303 4.77675 6.48627 5.22999 5.91012 5.8169C5.32416 6.39238 4.87064 7.08865 4.58114 7.85724C4.29767 8.5901 4.10178 9.42898 4.0457 10.6558C3.99039 11.8841 3.97656 12.2752 3.97656 15.4056C3.97656 18.536 3.98962 18.927 4.0457 20.1561C4.10178 21.383 4.2969 22.2211 4.5819 22.9539C4.87075 23.7221 5.32399 24.4189 5.91089 24.995C6.48639 25.581 7.18266 26.0345 7.95123 26.324C8.6841 26.6083 9.5222 26.8034 10.749 26.8595C11.9781 26.9155 12.3699 26.9286 15.4996 26.9286C18.6292 26.9286 19.021 26.9155 20.2501 26.8595C21.4769 26.8034 22.3151 26.6083 23.0479 26.3232C23.8161 26.0344 24.5129 25.5812 25.089 24.9943C25.675 24.4188 26.1285 23.7225 26.418 22.9539C26.7022 22.2211 26.8974 21.383 26.9534 20.1561C27.0095 18.927 27.0226 18.5352 27.0226 15.4056C27.0226 12.2759 27.0095 11.8841 26.9534 10.655C26.8974 9.42821 26.7022 8.5901 26.4172 7.85724C26.128 7.08832 25.6744 6.39176 25.0883 5.81613C24.5128 5.23016 23.8165 4.77665 23.0479 4.48714C22.3151 4.20368 21.4762 4.00779 20.2494 3.95171C19.021 3.8964 18.63 3.88257 15.4996 3.88257ZM15.4996 5.95902C18.5762 5.95902 18.9411 5.97054 20.1564 6.02585C21.2795 6.07732 21.8895 6.26399 22.2958 6.42301C22.8336 6.63119 23.2177 6.88162 23.621 7.28416C24.0243 7.68747 24.274 8.07157 24.4821 8.60931C24.6404 9.01569 24.8278 9.62564 24.8793 10.7487C24.9346 11.964 24.9461 12.3289 24.9461 15.4056C24.9461 18.4822 24.9346 18.8471 24.8793 20.0624C24.8278 21.1855 24.6412 21.7955 24.4821 22.2019C24.2977 22.7024 24.0035 23.1552 23.621 23.527C23.2492 23.9095 22.7964 24.2038 22.2958 24.3882C21.8895 24.5464 21.2795 24.7338 20.1564 24.7853C18.9411 24.8406 18.577 24.8521 15.4996 24.8521C12.4222 24.8521 12.058 24.8406 10.8427 24.7853C9.71963 24.7338 9.10968 24.5472 8.7033 24.3882C8.20279 24.2037 7.74997 23.9095 7.37816 23.527C6.99573 23.1552 6.70147 22.7023 6.517 22.2019C6.35875 21.7955 6.17131 21.1855 6.11984 20.0624C6.06453 18.8471 6.05301 18.4822 6.05301 15.4056C6.05301 12.3289 6.06453 11.964 6.11984 10.7487C6.17131 9.62564 6.35799 9.01569 6.517 8.60931C6.72518 8.07157 6.97562 7.68747 7.37816 7.28416C7.74992 6.90163 8.20275 6.60736 8.7033 6.42301C9.10968 6.26476 9.71963 6.07732 10.8427 6.02585C12.058 5.97054 12.4229 5.95902 15.4996 5.95902Z" fill="black"/>
<path fill-rule="evenodd" clip-rule="evenodd" d="M15.5 19.2504C14.9951 19.2504 14.4951 19.1509 14.0286 18.9577C13.5621 18.7645 13.1383 18.4813 12.7813 18.1242C12.4242 17.7672 12.141 17.3434 11.9478 16.8769C11.7546 16.4104 11.6551 15.9104 11.6551 15.4055C11.6551 14.9006 11.7546 14.4006 11.9478 13.9342C12.141 13.4677 12.4242 13.0438 12.7813 12.6868C13.1383 12.3298 13.5621 12.0466 14.0286 11.8533C14.4951 11.6601 14.9951 11.5607 15.5 11.5607C16.5197 11.5607 17.4976 11.9658 18.2187 12.6868C18.9397 13.4079 19.3448 14.3858 19.3448 15.4055C19.3448 16.4252 18.9397 17.4032 18.2187 18.1242C17.4976 18.8453 16.5197 19.2504 15.5 19.2504ZM15.5 9.48269C13.9291 9.48269 12.4226 10.1067 11.3119 11.2174C10.2012 12.3282 9.57715 13.8347 9.57715 15.4055C9.57715 16.9764 10.2012 18.4828 11.3119 19.5936C12.4226 20.7043 13.9291 21.3283 15.5 21.3283C17.0708 21.3283 18.5773 20.7043 19.688 19.5936C20.7988 18.4828 21.4228 16.9764 21.4228 15.4055C21.4228 13.8347 20.7988 12.3282 19.688 11.2174C18.5773 10.1067 17.0708 9.48269 15.5 9.48269ZM23.1459 9.37514C23.1459 9.74646 22.9984 10.1026 22.7358 10.3651C22.4733 10.6277 22.1171 10.7752 21.7458 10.7752C21.3745 10.7752 21.0184 10.6277 20.7558 10.3651C20.4933 10.1026 20.3458 9.74646 20.3458 9.37514C20.3458 9.00383 20.4933 8.64772 20.7558 8.38516C21.0184 8.1226 21.3745 7.9751 21.7458 7.9751C22.1171 7.9751 22.4733 8.1226 22.7358 8.38516C22.9984 8.64772 23.1459 9.00383 23.1459 9.37514Z" fill="black"/>
</svg>
