<svg width="32" height="31" viewBox="0 0 32 31" fill="none" xmlns="http://www.w3.org/2000/svg">
<path d="M27.6173 5.57713V25.234C27.6173 25.6835 27.4388 26.1145 27.121 26.4323C26.8032 26.7501 26.3722 26.9286 25.9228 26.9286H6.26585C5.81642 26.9286 5.38541 26.7501 5.06761 26.4323C4.74982 26.1145 4.57129 25.6835 4.57129 25.234V5.57713C4.57129 5.1277 4.74982 4.69669 5.06761 4.37889C5.38541 4.0611 5.81642 3.88257 6.26585 3.88257L25.9228 3.88257C26.3722 3.88257 26.8032 4.0611 27.121 4.37889C27.4388 4.69669 27.6173 5.1277 27.6173 5.57713ZM11.3495 12.6943H7.96041V23.5395H11.3495V12.6943ZM11.6546 8.96625C11.6563 8.70989 11.6076 8.45569 11.5112 8.21816C11.4147 7.98063 11.2724 7.76443 11.0924 7.5819C10.9124 7.39937 10.6982 7.25408 10.462 7.15433C10.2258 7.05459 9.97233 7.00233 9.71598 7.00056H9.65497C9.13364 7.00056 8.63366 7.20766 8.26502 7.5763C7.89638 7.94494 7.68928 8.44492 7.68928 8.96625C7.68928 9.48758 7.89638 9.98756 8.26502 10.3562C8.63366 10.7248 9.13364 10.9319 9.65497 10.9319C9.91135 10.9382 10.1665 10.894 10.4057 10.8017C10.645 10.7093 10.8637 10.5708 11.0494 10.3939C11.2351 10.217 11.3841 10.0053 11.4879 9.77079C11.5918 9.53629 11.6484 9.28364 11.6546 9.02725V8.96625ZM24.2282 16.951C24.2282 13.6907 22.1541 12.4232 20.0935 12.4232C19.4188 12.3894 18.747 12.5331 18.1452 12.8399C17.5434 13.1468 17.0326 13.606 16.6637 14.1719H16.5688V12.6943H13.383V23.5395H16.7721V17.7712C16.7231 17.1804 16.9092 16.5942 17.29 16.1398C17.6707 15.6855 18.2154 15.3997 18.8056 15.3446H18.9344C20.0121 15.3446 20.812 16.0224 20.812 17.7305V23.5395H24.2011L24.2282 16.951Z" fill="black"/>
</svg>
